<svg width="1100" height="1100" viewBox="0 0 1100 1100" fill="none" xmlns="http://www.w3.org/2000/svg">
<path d="M1001.51 484.07L1000.12 483.06L999.9 482.9C807.32 346.45 637.31 274.71 500.85 81.73C364.39 274.71 194.38 346.45 1.79999 482.9L1.57999 483.06L0.189988 484.07C0.189988 484.07 -0.0900123 506.34 0.0299877 520.71C0.0999877 528.33 3.77999 535.45 9.94999 539.93C190.75 671.15 350.02 872.88 481.33 1056.61C490.9 1070 510.8 1070 520.37 1056.61C651.68 872.88 810.95 671.15 991.75 539.93C997.92 535.45 1001.6 528.33 1001.67 520.71C1001.79 506.34 1001.51 484.07 1001.51 484.07ZM500.85 770.23C356.72 767.66 296.56 642.43 320.36 537.46C337.41 462.23 397.58 397.4 500.86 395.57C604.13 397.41 664.28 462.23 681.34 537.44C705.15 642.43 644.98 767.68 500.85 770.23Z" fill="url(#paint0_linear_7_2)"/>
<path d="M1000.12 483.06L999.9 482.9C815.66 352.1 653.53 192.17 520.23 9.85C510.63 -3.28 491.07 -3.28 481.47 9.85C348.17 192.17 186.04 352.1 1.8 482.9L1.58 483.06L0.190002 484.07L1.8 485.24C119.14 568.55 227.51 663.67 325.18 768.86C419.89 870.88 581.81 870.88 676.52 768.86C774.19 663.67 882.56 568.55 999.9 485.24L1001.51 484.07L1000.12 483.06ZM681.34 537.44C657.95 614.95 585.99 671.4 500.85 671.4C415.71 671.4 343.76 614.96 320.36 537.46C315.26 520.54 312.47 502.62 312.36 484.07C312.98 380.5 397.13 296.74 500.85 296.74C604.57 296.74 688.72 380.5 689.34 484.07C689.23 502.62 686.44 520.53 681.34 537.44Z" fill="url(#paint1_linear_7_2)"/>
<path d="M681.34 537.44C657.95 614.95 585.99 671.4 500.85 671.4C415.71 671.4 343.76 614.96 320.36 537.46C337.41 462.23 397.58 397.4 500.86 395.57C604.13 397.41 664.28 462.23 681.34 537.44Z" fill="url(#paint2_linear_7_2)"/>
<defs>
<linearGradient id="paint0_linear_7_2" x1="500.85" y1="1066.65" x2="500.85" y2="81.73" gradientUnits="userSpaceOnUse">
<stop stop-color="#0BCD21"/>
<stop offset="1" stop-color="#056200"/>
</linearGradient>
<linearGradient id="paint1_linear_7_2" x1="500.85" y1="845.37" x2="500.85" y2="-1.69575e-05" gradientUnits="userSpaceOnUse">
<stop stop-color="#056200
"/>
<stop offset="1" stop-color="#056200"/>
</linearGradient>
<linearGradient id="paint2_linear_7_2" x1="500.85" y1="395.57" x2="500.85" y2="671.4" gradientUnits="userSpaceOnUse">
<stop stop-color="#02FD41"/>
<stop offset="1" stop-color="#218C00"/>
</linearGradient>
</defs>
</svg>
